{
  "accessors": [
    {
      "bufferView": 2,
      "componentType": 5126,
      "count": 29436,
      "max": [
        1.3281489610671997,
        -7.445968151092529,
        1.3003309965133667
      ],
      "min": [
        -1.8435980081558228,
        -10.044715881347656,
        -1.2974439859390259
      ],
      "type": "VEC3"
    },
    {
      "bufferView": 2,
      "byteOffset": 353232,
      "componentType": 5126,
      "count": 29436,
      "max": [
        0.9999018907546997,
        0.9999561905860901,
        0.99998539686203
      ],
      "min": [
        -0.999891459941864,
        -0.9999932050704956,
        -0.9999390840530396
      ],
      "type": "VEC3"
    },
    {
      "bufferView": 1,
      "componentType": 5126,
      "count": 29436,
      "max": [
        0.9881680011749268,
        0.996068000793457
      ],
      "min": [
        0.0039059999398887157,
        0.0039059999398887157
      ],
      "type": "VEC2"
    },
    {
      "bufferView": 0,
      "componentType": 5125,
      "count": 147603,
      "type": "SCALAR"
    }
  ],
  "asset": {
    "extras": {
      "author": "604scans (https://sketchfab.com/604scans)",
      "license": "CC-BY-4.0 (http://creativecommons.org/licenses/by/4.0/)",
      "source": "https://sketchfab.com/3d-models/3dst20-halloween-skull-85a0d9ee436a4e90ba374ded372ce640",
      "title": "#3DST20 - Halloween Skull"
    },
    "generator": "Sketchfab-12.66.0",
    "version": "2.0"
  },
  "bufferViews": [
    {
      "buffer": 0,
      "byteLength": 590412,
      "name": "floatBufferViews",
      "target": 34963
    },
    {
      "buffer": 0,
      "byteLength": 235488,
      "byteOffset": 590412,
      "byteStride": 8,
      "name": "floatBufferViews",
      "target": 34962
    },
    {
      "buffer": 0,
      "byteLength": 706464,
      "byteOffset": 825900,
      "byteStride": 12,
      "name": "floatBufferViews",
      "target": 34962
    }
  ],
  "buffers": [
    {
      "byteLength": 1532364,
      "uri": "scene.bin"
    }
  ],
  "images": [
    {
      "uri": "textures/Scene_-_Root_baseColor.jpeg"
    }
  ],
  "materials": [
    {
      "doubleSided": true,
      "name": "Scene_-_Root",
      "pbrMetallicRoughness": {
        "baseColorTexture": {
          "index": 0
        },
        "metallicFactor": 0.0,
        "roughnessFactor": 0.6
      }
    }
  ],
  "meshes": [
    {
      "name": "Object_0",
      "primitives": [
        {
          "attributes": {
            "NORMAL": 1,
            "POSITION": 0,
            "TEXCOORD_0": 2
          },
          "indices": 3,
          "material": 0,
          "mode": 4
        }
      ]
    }
  ],
  "nodes": [
    {
      "children": [
        1
      ],
      "matrix": [
        1.0,
        0.0,
        0.0,
        0.0,
        0.0,
        -9.957991966651452e-17,
        1.0,
        0.0,
        0.0,
        -1.0,
        -9.957991966651452e-17,
        0.0,
        0.0,
        0.0,
        0.0,
        1.0
      ],
      "name": "Sketchfab_model"
    },
    {
      "children": [
        2
      ],
      "name": "866008db56284152a43632ce19b3780b.obj.cleaner"
    },
    {
      "mesh": 0,
      "name": "Object_2"
    }
  ],
  "samplers": [
    {
      "magFilter": 9729,
      "minFilter": 9987,
      "wrapS": 10497,
      "wrapT": 10497
    }
  ],
  "scene": 0,
  "scenes": [
    {
      "name": "Sketchfab_Scene",
      "nodes": [
        0
      ]
    }
  ],
  "textures": [
    {
      "sampler": 0,
      "source": 0
    }
  ]
}
